<svg width="70" height="71" viewBox="0 0 70 71" fill="none" xmlns="http://www.w3.org/2000/svg">
<rect y="0.5" width="70" height="70" rx="6" fill="#785EEB"/>
<path d="M24.3743 39.7502L19.416 34.7918L20.9035 33.3043L23.3827 35.7835C23.241 35.146 23.1348 34.5085 23.0639 33.871C22.9931 33.2335 22.9577 32.596 22.9577 31.9585C22.9577 30.0224 23.2764 28.1453 23.9139 26.3272C24.5514 24.5092 25.4723 22.8446 26.6764 21.3335L28.1993 22.8564C27.1841 24.1786 26.4106 25.6132 25.8788 27.1602C25.3471 28.7072 25.0817 30.3067 25.0827 31.9585C25.0827 32.5724 25.1181 33.1806 25.1889 33.7832C25.2598 34.3857 25.3778 34.9817 25.5431 35.571L27.8452 33.3043L29.3327 34.7918L24.3743 39.7502ZM41.3035 48.0022C40.7605 48.1911 40.2117 48.2799 39.6573 48.2686C39.103 48.2572 38.5656 48.1212 38.0452 47.8606L28.766 43.5397L29.4035 42.1231C29.6396 41.6509 29.9702 41.2674 30.3952 40.9727C30.8202 40.6781 31.2924 40.5067 31.8118 40.4585L34.2202 40.2814L30.2535 29.4085C30.1118 29.0307 30.1237 28.6704 30.2889 28.3276C30.4542 27.9847 30.7257 27.743 31.1035 27.6022C31.4813 27.4606 31.8411 27.4724 32.183 27.6377C32.5249 27.8029 32.7672 28.0745 32.9098 28.4522L38.1514 42.8668L34.6098 43.1147L39.2493 45.2752C39.4146 45.346 39.5917 45.3876 39.7806 45.3998C39.9695 45.4121 40.1466 45.3942 40.3118 45.346L45.8723 43.3272C46.6042 43.0675 47.1355 42.5774 47.466 41.8567C47.7966 41.1361 47.832 40.4103 47.5723 39.6793L45.6243 34.3668C45.4827 33.9891 45.4945 33.6287 45.6598 33.2859C45.825 32.9431 46.0966 32.7013 46.4743 32.5606C46.8521 32.4189 47.212 32.4307 47.5538 32.596C47.8957 32.7613 48.138 33.0328 48.2806 33.4106L50.2285 38.7231C50.7716 40.2106 50.7182 41.6565 50.0684 43.0609C49.4187 44.4653 48.3505 45.4395 46.8639 45.9835L41.3035 48.0022ZM38.116 38.6168L36.2035 33.2689C36.0618 32.8911 36.0737 32.5308 36.2389 32.188C36.4042 31.8452 36.6757 31.6034 37.0535 31.4627C37.4313 31.321 37.7916 31.3328 38.1344 31.4981C38.4773 31.6634 38.719 31.9349 38.8598 32.3127L40.8077 37.6252L38.116 38.6168ZM42.1181 37.1647L40.666 33.1627C40.5243 32.7849 40.5362 32.4246 40.7014 32.0817C40.8667 31.7389 41.1382 31.4971 41.516 31.3564C41.8938 31.2147 42.2541 31.2266 42.5969 31.3918C42.9398 31.5571 43.1815 31.8286 43.3223 32.2064L44.7743 36.1731L42.1181 37.1647Z" fill="white"/>
</svg>
