<svg width="70" height="70" viewBox="0 0 70 70" fill="none" xmlns="http://www.w3.org/2000/svg">
<rect width="70" height="70" rx="6" fill="#785EEB"/>
<path d="M42.0833 29.3334H44.9167C46.4815 29.3334 47.75 30.6019 47.75 32.1667V40.6667C47.75 42.2316 46.4815 43.5001 44.9167 43.5001H42.0833V49.1667L36.4167 43.5001H30.75C29.9676 43.5001 29.2593 43.1829 28.7465 42.6702M28.7465 42.6702L33.5833 37.8334H39.25C40.8148 37.8334 42.0833 36.5649 42.0833 35.0001V26.5001C42.0833 24.9353 40.8148 23.6667 39.25 23.6667H25.0833C23.5185 23.6667 22.25 24.9353 22.25 26.5001V35.0001C22.25 36.5649 23.5185 37.8334 25.0833 37.8334H27.9167V43.5001L28.7465 42.6702Z" stroke="white" stroke-width="2" stroke-linecap="round" stroke-linejoin="round"/>
</svg>
