<svg width="70" height="71" viewBox="0 0 70 71" fill="none" xmlns="http://www.w3.org/2000/svg">
<rect y="0.5" width="70" height="70" rx="6" fill="#785EEB"/>
<path d="M22.3278 34.0833H25.0833C26.6481 34.0833 27.9167 35.3519 27.9167 36.9167V38.3333C27.9167 39.8981 29.1852 41.1667 30.75 41.1667C32.3148 41.1667 33.5833 42.4352 33.5833 44V48.1722M29.3333 24.0753V26.2917C29.3333 28.2477 30.919 29.8333 32.875 29.8333H33.5833C35.1481 29.8333 36.4167 31.1019 36.4167 32.6667C36.4167 34.2315 37.6852 35.5 39.25 35.5C40.8148 35.5 42.0833 34.2315 42.0833 32.6667C42.0833 31.1019 43.3519 29.8333 44.9167 29.8333L46.4247 29.8333M39.25 47.5245V44C39.25 42.4352 40.5185 41.1667 42.0833 41.1667H46.4247M47.75 35.5C47.75 42.5416 42.0416 48.25 35 48.25C27.9584 48.25 22.25 42.5416 22.25 35.5C22.25 28.4584 27.9584 22.75 35 22.75C42.0416 22.75 47.75 28.4584 47.75 35.5Z" stroke="white" stroke-width="2" stroke-linecap="round" stroke-linejoin="round"/>
</svg>
