<svg width="25" height="24" viewBox="0 0 25 24" fill="none" xmlns="http://www.w3.org/2000/svg">
<rect x="0.916992" width="24" height="24" rx="12" fill="#785EEB"/>
<g clip-path="url(#clip0_798_108)">
<g clip-path="url(#clip1_798_108)">
<path d="M12.917 6.77441C11.4988 6.77441 11.3205 6.78095 10.7633 6.80577C10.2061 6.8319 9.82656 6.91943 9.49407 7.04877C9.1453 7.17995 8.8294 7.38572 8.56844 7.6517C8.30263 7.91279 8.09689 8.22865 7.96552 8.57732C7.83618 8.90916 7.74799 9.28933 7.72252 9.84458C7.69769 10.4031 7.69116 10.5808 7.69116 12.0009C7.69116 13.4197 7.69769 13.5974 7.72252 14.1546C7.74865 14.7111 7.83618 15.0906 7.96552 15.4231C8.09943 15.7667 8.27776 16.0581 8.56844 16.3487C8.85848 16.6394 9.14982 16.8184 9.49341 16.9517C9.82656 17.081 10.2054 17.1692 10.762 17.1947C11.3198 17.2195 11.4975 17.226 12.917 17.226C14.3364 17.226 14.5135 17.2195 15.0713 17.1947C15.6272 17.1685 16.008 17.081 16.3405 16.9517C16.6891 16.8204 17.0047 16.6147 17.2655 16.3487C17.5562 16.0581 17.7345 15.7667 17.8684 15.4231C17.9971 15.0906 18.0853 14.7111 18.1114 14.1546C18.1362 13.5974 18.1428 13.4197 18.1428 12.0002C18.1428 10.5808 18.1362 10.4031 18.1114 9.84523C18.0853 9.28933 17.9971 8.90916 17.8684 8.57732C17.7371 8.22864 17.5313 7.91277 17.2655 7.6517C17.0046 7.38562 16.6887 7.17984 16.3399 7.04877C16.0067 6.91943 15.6265 6.83124 15.0707 6.80577C14.5128 6.78095 14.3358 6.77441 12.9157 6.77441H12.9176H12.917ZM12.4486 7.71637H12.9176C14.3129 7.71637 14.4782 7.72094 15.0288 7.74641C15.5384 7.76928 15.8153 7.85485 15.9995 7.92605C16.2432 8.02077 16.4176 8.13443 16.6005 8.31733C16.7834 8.50024 16.8964 8.67399 16.9911 8.9183C17.063 9.10186 17.1479 9.37883 17.1708 9.88834C17.1963 10.439 17.2015 10.6043 17.2015 11.9989C17.2015 13.3936 17.1963 13.5595 17.1708 14.1101C17.1479 14.6197 17.0623 14.896 16.9911 15.0802C16.9074 15.3071 16.7736 15.5122 16.5999 15.6805C16.417 15.8634 16.2432 15.9764 15.9989 16.0711C15.816 16.143 15.539 16.2279 15.0288 16.2514C14.4782 16.2762 14.3129 16.2821 12.9176 16.2821C11.5223 16.2821 11.3564 16.2762 10.8057 16.2514C10.2962 16.2279 10.0199 16.143 9.8357 16.0711C9.60871 15.9875 9.40335 15.854 9.23473 15.6805C9.06081 15.512 8.92688 15.3066 8.8428 15.0795C8.7716 14.896 8.68603 14.619 8.66316 14.1095C8.63834 13.5588 8.63311 13.3936 8.63311 11.9976C8.63311 10.6023 8.63834 10.4377 8.66316 9.88703C8.68668 9.37752 8.7716 9.10055 8.84345 8.91634C8.93817 8.67269 9.05183 8.49828 9.23473 8.31537C9.41764 8.13247 9.5914 8.01946 9.8357 7.92474C10.0199 7.85289 10.2962 7.76797 10.8057 7.74445C11.2878 7.72224 11.4746 7.71571 12.4486 7.71506V7.71637ZM15.7069 8.58385C15.6245 8.58385 15.543 8.60007 15.4669 8.63158C15.3908 8.6631 15.3217 8.70929 15.2635 8.76752C15.2052 8.82575 15.159 8.89488 15.1275 8.97097C15.096 9.04705 15.0798 9.12859 15.0798 9.21095C15.0798 9.2933 15.096 9.37484 15.1275 9.45093C15.159 9.52701 15.2052 9.59614 15.2635 9.65437C15.3217 9.7126 15.3908 9.75879 15.4669 9.79031C15.543 9.82182 15.6245 9.83804 15.7069 9.83804C15.8732 9.83804 16.0327 9.77197 16.1503 9.65437C16.2679 9.53677 16.334 9.37726 16.334 9.21095C16.334 9.04463 16.2679 8.88513 16.1503 8.76752C16.0327 8.64992 15.8732 8.58385 15.7069 8.58385ZM12.9176 9.31677C12.5617 9.31122 12.2081 9.37653 11.8777 9.50891C11.5472 9.64129 11.2464 9.83809 10.9927 10.0879C10.739 10.3376 10.5375 10.6353 10.4 10.9637C10.2625 11.2921 10.1916 11.6445 10.1916 12.0005C10.1916 12.3566 10.2625 12.709 10.4 13.0374C10.5375 13.3657 10.739 13.6635 10.9927 13.9132C11.2464 14.163 11.5472 14.3598 11.8777 14.4922C12.2081 14.6246 12.5617 14.6899 12.9176 14.6843C13.6222 14.6733 14.2941 14.3857 14.7884 13.8836C15.2828 13.3815 15.5599 12.7052 15.5599 12.0005C15.5599 11.2959 15.2828 10.6196 14.7884 10.1175C14.2941 9.61535 13.6222 9.32776 12.9176 9.31677ZM12.9176 10.2581C13.3797 10.2581 13.8228 10.4416 14.1495 10.7683C14.4762 11.095 14.6598 11.5382 14.6598 12.0002C14.6598 12.4623 14.4762 12.9054 14.1495 13.2321C13.8228 13.5588 13.3797 13.7424 12.9176 13.7424C12.4556 13.7424 12.0125 13.5588 11.6857 13.2321C11.359 12.9054 11.1755 12.4623 11.1755 12.0002C11.1755 11.5382 11.359 11.095 11.6857 10.7683C12.0125 10.4416 12.4556 10.2581 12.9176 10.2581Z" fill="white"/>
</g>
</g>
<defs>
<clipPath id="clip0_798_108">
<rect width="10.4516" height="10.4516" fill="white" transform="translate(7.69116 6.77441)"/>
</clipPath>
<clipPath id="clip1_798_108">
<rect width="10.4516" height="10.4516" fill="white" transform="translate(7.69116 6.77441)"/>
</clipPath>
</defs>
</svg>
