<svg width="25" height="24" viewBox="0 0 25 24" fill="none" xmlns="http://www.w3.org/2000/svg">
<g clip-path="url(#clip0_798_120)">
<rect x="0.916992" width="24" height="24" rx="12" fill="white"/>
<path d="M12.917 0C6.28956 0 0.916992 5.57967 0.916992 12C0.916992 18.4203 6.28956 24 12.917 24C19.5444 24 24.917 18.4203 24.917 12C24.917 5.57967 19.5444 0 12.917 0ZM18.4792 8.28094C18.2986 10.1191 17.5172 14.5799 17.1195 16.6388C16.9513 17.5099 16.6201 17.802 16.2994 17.8305C15.6027 17.8927 15.0734 17.3844 14.3985 16.9558C13.3423 16.2851 12.7457 15.8676 11.7204 15.2131C10.5357 14.4568 11.3037 14.0413 11.9789 13.3616C12.1556 13.1838 15.226 10.4783 15.2854 10.2329C15.2928 10.2022 15.3 10.0875 15.2296 10.0274C15.1593 9.96717 15.0559 9.98756 14.9811 10.0039C14.8752 10.0272 13.188 11.1076 9.91946 13.245C9.44059 13.5635 9.00681 13.7187 8.61814 13.7106C8.18967 13.7017 7.36549 13.476 6.75277 13.283C6.00127 13.0463 5.40398 12.9212 5.45599 12.5193C5.48309 12.31 5.78067 12.0959 6.34873 11.8771C9.84699 10.4006 12.1797 9.4272 13.3469 8.95683C16.6794 7.614 17.3718 7.38075 17.8232 7.37297C17.9225 7.37138 18.1444 7.39519 18.2882 7.5082C18.3838 7.58871 18.4448 7.70106 18.459 7.82302C18.4834 7.97445 18.4901 8.12805 18.4792 8.28094Z" fill="#785EEB"/>
</g>
<defs>
<clipPath id="clip0_798_120">
<rect x="0.916992" width="24" height="24" rx="12" fill="white"/>
</clipPath>
</defs>
</svg>
