<svg width="25" height="24" viewBox="0 0 25 24" fill="none" xmlns="http://www.w3.org/2000/svg">
<rect x="0.916992" width="24" height="24" rx="12" fill="#785EEB"/>
<g clip-path="url(#clip0_798_130)">
<path d="M16.5513 9.6808C17.4998 10.279 18.6618 10.631 19.9167 10.631V8.50035C19.6792 8.5004 19.4423 8.47852 19.21 8.43508V10.1122C17.9551 10.1122 16.7933 9.76028 15.8446 9.1621V13.5102C15.8446 15.6854 13.8461 17.4485 11.3809 17.4485C10.4611 17.4485 9.60617 17.2032 8.896 16.7824C9.70657 17.5137 10.837 17.9673 12.0875 17.9673C14.5528 17.9673 16.5514 16.2041 16.5514 14.0288V9.6808H16.5513ZM17.4232 7.53122C16.9385 7.06399 16.6202 6.46016 16.5513 5.79259V5.51855H15.8816C16.0502 6.36701 16.6253 7.09187 17.4232 7.53122ZM10.4552 15.1133C10.1844 14.8 10.038 14.4167 10.0386 14.0226C10.0386 13.0278 10.9527 12.2212 12.0805 12.2212C12.2907 12.2211 12.4996 12.2496 12.6999 12.3056V10.1273C12.4658 10.099 12.2296 10.0869 11.9934 10.0914V11.7868C11.793 11.7308 11.584 11.7023 11.3738 11.7025C10.246 11.7025 9.33195 12.509 9.33195 13.504C9.33195 14.2075 9.78883 14.8166 10.4552 15.1133Z" fill="white"/>
<path d="M15.8446 9.16205C16.7933 9.76023 17.955 10.1122 19.2099 10.1122V8.43504C18.5095 8.30338 17.8894 7.98044 17.4231 7.53122C16.6251 7.09182 16.0501 6.36696 15.8815 5.51855H14.1223V14.0288C14.1183 15.0209 13.2058 15.8242 12.0804 15.8242C11.4173 15.8242 10.8281 15.5453 10.455 15.1132C9.78879 14.8166 9.33186 14.2074 9.33186 13.504C9.33186 12.5091 10.2459 11.7025 11.3737 11.7025C11.5897 11.7025 11.798 11.7322 11.9934 11.7869V10.0914C9.57149 10.1356 7.62378 11.8815 7.62378 14.0288C7.62378 15.1007 8.10879 16.0724 8.896 16.7825C9.60618 17.2032 10.4611 17.4486 11.3809 17.4486C13.8461 17.4486 15.8446 15.6853 15.8446 13.5102L15.8446 9.16205Z" fill="white" fill-opacity="0.8"/>
<path d="M19.2099 8.43514V7.98175C18.5782 7.9826 17.959 7.82652 17.4231 7.53137C17.8975 7.9896 18.5222 8.3056 19.2099 8.43523M15.8814 5.51866C15.8653 5.43759 15.853 5.35598 15.8444 5.27403V5H13.4154V13.5103C13.4115 14.5023 12.499 15.3056 11.3736 15.3056C11.0545 15.3061 10.7398 15.2402 10.4549 15.1135C10.828 15.5455 11.4172 15.8243 12.0803 15.8243C13.2056 15.8243 14.1182 15.0211 14.1222 14.0289V5.5187L15.8814 5.51866ZM11.9934 10.0915V9.60877C11.7904 9.58428 11.5858 9.57203 11.3809 9.5721C8.91549 9.5721 6.91699 11.3353 6.91699 13.5103C6.91699 14.8739 7.70243 16.0756 8.89599 16.7825C8.10878 16.0725 7.62377 15.1008 7.62377 14.0289C7.62377 11.8817 9.57143 10.1357 11.9934 10.0915Z" fill="white"/>
</g>
<defs>
<clipPath id="clip0_798_130">
<rect width="13" height="13" fill="white" transform="translate(6.91699 5)"/>
</clipPath>
</defs>
</svg>
