<svg width="25" height="24" viewBox="0 0 25 24" fill="none" xmlns="http://www.w3.org/2000/svg">
<rect x="0.916992" width="24" height="24" rx="12" fill="#785EEB"/>
<g clip-path="url(#clip0_798_124)">
<g clip-path="url(#clip1_798_124)">
<path d="M13.0689 7.52734H13.1369C13.765 7.52964 16.9475 7.55256 17.8056 7.78332C18.065 7.85375 18.3014 7.99103 18.4912 8.18143C18.6809 8.37184 18.8173 8.60871 18.8868 8.86836C18.964 9.15873 19.0183 9.54308 19.0549 9.93965L19.0626 10.0191L19.0794 10.2178L19.0855 10.2973C19.1352 10.9957 19.1413 11.6497 19.1421 11.7926V11.8499C19.1413 11.9982 19.1344 12.6966 19.0794 13.424L19.0733 13.5042L19.0664 13.5837C19.0282 14.0208 18.9717 14.4548 18.8868 14.7742C18.8175 15.034 18.6812 15.2709 18.4914 15.4614C18.3016 15.6518 18.0651 15.789 17.8056 15.8592C16.9193 16.0977 13.5503 16.1145 13.0834 16.1152H12.9749C12.7388 16.1152 11.7622 16.1106 10.7383 16.0755L10.6084 16.0709L10.542 16.0679L10.4113 16.0625L10.2806 16.0572C9.43246 16.0197 8.62479 15.9593 8.25266 15.8585C7.99324 15.7883 7.7568 15.6512 7.56704 15.4609C7.37728 15.2706 7.24086 15.0338 7.17144 14.7742C7.08663 14.4556 7.03008 14.0208 6.99188 13.5837L6.98576 13.5035L6.97965 13.424C6.94194 12.9062 6.92104 12.3874 6.91699 11.8683L6.91699 11.7743C6.91852 11.61 6.92463 11.0423 6.9659 10.4157L6.97124 10.337L6.97354 10.2973L6.97965 10.2178L6.99646 10.0191L7.0041 9.93965C7.04078 9.54308 7.09503 9.15796 7.17221 8.86836C7.24151 8.6086 7.37788 8.37162 7.56765 8.18118C7.75741 7.99074 7.99391 7.85354 8.25343 7.78332C8.62555 7.68399 9.43322 7.62286 10.2814 7.58465L10.4113 7.5793L10.5427 7.57472L10.6084 7.57243L10.7391 7.56708C11.4663 7.54368 12.1938 7.53069 12.9214 7.52811H13.0689V7.52734ZM11.8073 9.98015V13.6617L14.9837 11.8217L11.8073 9.98015Z" fill="white"/>
</g>
</g>
<defs>
<clipPath id="clip0_798_124">
<rect width="12.2258" height="12.2258" fill="white" transform="translate(6.91699 6)"/>
</clipPath>
<clipPath id="clip1_798_124">
<rect width="12.2258" height="12.2258" fill="white" transform="translate(6.91699 6)"/>
</clipPath>
</defs>
</svg>
